<svg width="78" height="14" viewBox="0 0 78 14" fill="none" xmlns="http://www.w3.org/2000/svg">
<g clip-path="url(#clip0_2_166)">
<path d="M3.16054 13.5126C2.82279 13.6859 2.43954 13.3823 2.50779 12.9946L3.23404 8.85588L0.151417 5.91938C-0.136458 5.64463 0.0131675 5.14239 0.399042 5.08814L4.68479 4.47914L6.59579 0.69301C6.76817 0.35176 7.23454 0.35176 7.40692 0.69301L9.31792 4.47914L13.6037 5.08814C13.9895 5.14239 14.1392 5.64463 13.8504 5.91938L10.7687 8.85588L11.4949 12.9946C11.5632 13.3823 11.1799 13.6859 10.8422 13.5126L7.00004 11.5386L3.15967 13.5126H3.16054Z" fill="#FFB800"/>
</g>
<g clip-path="url(#clip1_2_166)">
<path d="M19.1605 13.5126C18.8228 13.6859 18.4395 13.3823 18.5078 12.9946L19.234 8.85588L16.1514 5.91938C15.8635 5.64463 16.0132 5.14239 16.399 5.08814L20.6848 4.47914L22.5958 0.69301C22.7682 0.35176 23.2345 0.35176 23.4069 0.69301L25.3179 4.47914L29.6037 5.08814C29.9895 5.14239 30.1392 5.64463 29.8504 5.91938L26.7687 8.85588L27.4949 12.9946C27.5632 13.3823 27.1799 13.6859 26.8422 13.5126L23 11.5386L19.1597 13.5126H19.1605Z" fill="#FFB800"/>
</g>
<g clip-path="url(#clip2_2_166)">
<path d="M35.1605 13.5126C34.8228 13.6859 34.4395 13.3823 34.5078 12.9946L35.234 8.85588L32.1514 5.91938C31.8635 5.64463 32.0132 5.14239 32.399 5.08814L36.6848 4.47914L38.5958 0.69301C38.7682 0.35176 39.2345 0.35176 39.4069 0.69301L41.3179 4.47914L45.6037 5.08814C45.9895 5.14239 46.1392 5.64463 45.8504 5.91938L42.7687 8.85588L43.4949 12.9946C43.5632 13.3823 43.1799 13.6859 42.8422 13.5126L39 11.5386L35.1597 13.5126H35.1605Z" fill="#FFB800"/>
</g>
<g clip-path="url(#clip3_2_166)">
<path d="M51.1605 13.5126C50.8228 13.6859 50.4395 13.3823 50.5078 12.9946L51.234 8.85588L48.1514 5.91938C47.8635 5.64463 48.0132 5.14239 48.399 5.08814L52.6848 4.47914L54.5958 0.69301C54.7682 0.35176 55.2345 0.35176 55.4069 0.69301L57.3179 4.47914L61.6037 5.08814C61.9895 5.14239 62.1392 5.64463 61.8504 5.91938L58.7687 8.85588L59.4949 12.9946C59.5632 13.3823 59.1799 13.6859 58.8422 13.5126L55 11.5386L51.1597 13.5126H51.1605Z" fill="#FFB800"/>
</g>
<g clip-path="url(#clip4_2_166)">
<path d="M67.1605 13.5126C66.8228 13.6859 66.4395 13.3823 66.5078 12.9946L67.234 8.85588L64.1514 5.91938C63.8635 5.64463 64.0132 5.14239 64.399 5.08814L68.6848 4.47914L70.5958 0.69301C70.7682 0.35176 71.2345 0.35176 71.4069 0.69301L73.3179 4.47914L77.6037 5.08814C77.9895 5.14239 78.1392 5.64463 77.8504 5.91938L74.7687 8.85588L75.4949 12.9946C75.5632 13.3823 75.1799 13.6859 74.8422 13.5126L71 11.5386L67.1597 13.5126H67.1605Z" fill="#FFB800"/>
</g>
<defs>
<clipPath id="clip0_2_166">
<rect width="14" height="14" fill="white"/>
</clipPath>
<clipPath id="clip1_2_166">
<rect width="14" height="14" fill="white" transform="translate(16)"/>
</clipPath>
<clipPath id="clip2_2_166">
<rect width="14" height="14" fill="white" transform="translate(32)"/>
</clipPath>
<clipPath id="clip3_2_166">
<rect width="14" height="14" fill="white" transform="translate(48)"/>
</clipPath>
<clipPath id="clip4_2_166">
<rect width="14" height="14" fill="white" transform="translate(64)"/>
</clipPath>
</defs>
</svg>
